<?xml version="1.0" encoding="utf-8"?>
<!-- Generator: Adobe Illustrator 19.0.0, SVG Export Plug-In . SVG Version: 6.00 Build 0)  -->
<svg version="1.1" xmlns="http://www.w3.org/2000/svg" xmlns:xlink="http://www.w3.org/1999/xlink" x="0px" y="0px"
	 viewBox="0 0 351.8 218.4" style="enable-background:new 0 0 351.8 218.4;" xml:space="preserve">
<style type="text/css">
	.st0{clip-path:url(#SVGID_2_);fill:#3DD9D4;}
	.st1{clip-path:url(#SVGID_2_);}
	.st2{clip-path:url(#SVGID_4_);fill:url(#SVGID_5_);}
</style>
<g id="BG">
</g>
<g id="Object">
	<g>
		<g>
			<defs>
				<rect id="SVGID_1_" x="0" y="-51.1" width="431.9" height="269.5"/>
			</defs>
			<clipPath id="SVGID_2_">
				<use xlink:href="#SVGID_1_"  style="overflow:visible;"/>
			</clipPath>
			<path class="st0" d="M324.4,142.2c-19.2-7.9-44.3-2.8-58.7-17.8c-8.9-9.3-10.5-23.3-17.3-34.2c-10.4-16.5-31.3-23-50.7-25.1
				c-17.6-1.9-37-1.8-50.5-13.1c-12.3-10.4-16.7-28-29-38.2C104,1.9,83.3,2.9,65,5.3c-16,2.1-31.8,4.8-47.6,8.1
				c-5.4,1.2-12.6,2-19.8,3.4v215.7h323.5c1.9-1.4,3.7-2.9,5.5-4.4c9.9-8.4,19.1-18.3,23.2-30.6C356.8,176.3,345,150.7,324.4,142.2z
				"/>
			<g class="st1">
				<defs>
					<path id="SVGID_3_" d="M50.8,1.5C69.2-0.9,89.8-1.9,104,10c12.4,10.3,16.7,27.9,29,38.2c13.5,11.4,32.9,11.2,50.5,13.1
						c19.4,2.1,40.2,8.6,50.7,25.1c6.9,10.9,8.4,24.9,17.3,34.2c14.4,15,39.5,9.9,58.7,17.8c20.6,8.5,32.4,34.1,25.4,55.3
						c-4.1,12.3-13.3,22.3-23.2,30.6c-19.7,16.6-43.3,28.5-68.3,34.6c-31.5,7.7-64.5,6.1-96.9,5.5c-39.4-0.6-79.1,0.5-117.8-6.9
						c-19.8-3.8-39.6-9.9-55.8-21.9c-21.7-16-34.9-40.8-46-65.3c-4.4-9.8-8.7-20.1-8.5-30.8c0.2-19.4,14.3-35.4,23.5-52.5
						c6.8-12.5,11.1-26.3,12.7-40.5c1-8.1-1.5-20.1,5.9-25.7C-29,13.4-8.6,12.2,3.3,9.7C19,6.3,34.9,3.6,50.8,1.5z"/>
				</defs>
				<clipPath id="SVGID_4_">
					<use xlink:href="#SVGID_3_"  style="overflow:visible;"/>
				</clipPath>
				<linearGradient id="SVGID_5_" gradientUnits="userSpaceOnUse" x1="201.5268" y1="163.3342" x2="278.4367" y2="-144.9309">
					<stop  offset="0" style="stop-color:#3DD9D4"/>
					<stop  offset="0.9987" style="stop-color:#83F1D7"/>
				</linearGradient>
				<rect x="-16.5" y="-53.9" class="st2" width="474" height="282.6"/>
			</g>
		</g>
	</g>
</g>
</svg>
